<?xml version="1.0" standalone="no"?>
<!DOCTYPE svg PUBLIC "-//W3C//DTD SVG 20010904//EN"
 "http://www.w3.org/TR/2001/REC-SVG-20010904/DTD/svg10.dtd">
<svg version="1.0" xmlns="http://www.w3.org/2000/svg"
 width="1080.000000pt" height="1080.000000pt" viewBox="0 0 1080.000000 1080.000000"
 preserveAspectRatio="xMidYMid meet">

<g transform="translate(0.000000,1080.000000) scale(0.100000,-0.100000)"
fill="#000000" stroke="none">
<path d="M5215 9840 c-168 -9 -286 -23 -455 -52 -63 -10 -140 -23 -170 -28
-199 -34 -722 -191 -827 -249 -10 -6 -54 -26 -98 -44 -132 -57 -230 -101 -235
-107 -3 -3 -43 -25 -90 -49 -47 -25 -101 -54 -120 -66 -19 -12 -62 -37 -95
-55 -64 -35 -224 -142 -290 -194 -22 -18 -65 -49 -95 -70 -30 -22 -82 -62
-115 -91 -33 -28 -69 -58 -81 -66 -70 -47 -299 -269 -436 -424 -44 -49 -94
-106 -112 -125 -17 -20 -43 -51 -58 -70 -14 -19 -44 -58 -66 -86 -74 -94 -269
-390 -329 -499 -51 -92 -222 -443 -233 -480 -7 -22 -21 -58 -31 -80 -27 -60
-102 -277 -137 -395 -41 -137 -86 -357 -123 -605 -51 -341 -57 -848 -14 -1130
8 -55 20 -131 26 -170 16 -105 56 -314 73 -375 45 -171 164 -528 185 -554 4
-6 11 -24 15 -40 9 -37 50 -126 133 -291 111 -219 199 -369 303 -519 69 -99
262 -351 300 -391 16 -16 64 -68 107 -115 180 -195 281 -289 543 -507 118 -98
337 -246 352 -237 7 4 8 3 4 -4 -6 -10 57 -51 244 -156 59 -34 295 -151 380
-189 348 -155 812 -283 1221 -336 322 -42 777 -46 1064 -10 249 31 318 41 390
58 44 11 143 34 220 51 570 131 1246 464 1705 839 199 163 231 191 385 346
167 167 365 390 365 411 0 4 6 12 14 18 19 16 118 144 151 196 16 25 47 74 71
110 134 207 230 381 220 398 -3 6 0 12 7 15 13 5 42 57 49 87 2 8 6 17 9 20
16 14 78 153 134 300 145 383 223 709 272 1135 26 224 23 680 -6 915 -59 490
-167 886 -360 1325 -33 77 -66 147 -71 155 -5 8 -26 44 -45 80 -144 267 -244
423 -403 630 -118 153 -135 172 -283 335 -109 120 -117 127 -130 119 -8 -4 -9
-3 -5 5 5 7 -10 28 -40 54 -26 23 -64 58 -83 77 -48 47 -233 200 -351 289 -52
39 -100 75 -106 80 -17 14 -172 114 -254 163 -196 118 -375 211 -525 273 -49
20 -98 41 -108 46 -49 26 -329 123 -462 160 -226 62 -240 65 -383 93 -133 26
-166 31 -397 60 -151 19 -524 27 -720 16z m669 -140 c82 -6 169 -15 194 -21
24 -5 110 -21 191 -35 298 -51 530 -121 916 -274 102 -41 306 -143 490 -245
93 -52 405 -263 485 -328 8 -7 33 -26 55 -42 22 -16 42 -32 45 -35 33 -34 205
-174 211 -173 5 2 8 -1 6 -5 -1 -5 39 -49 88 -98 238 -236 457 -512 645 -813
71 -115 82 -135 165 -298 40 -79 76 -139 80 -135 5 4 5 2 2 -5 -4 -6 2 -33 14
-60 168 -384 279 -793 336 -1228 21 -168 25 -758 5 -945 -28 -259 -45 -358
-104 -600 -38 -158 -155 -510 -202 -614 -21 -43 -40 -91 -43 -107 -3 -16 -10
-29 -15 -29 -6 0 -8 -9 -5 -20 3 -11 0 -23 -5 -27 -7 -4 -8 -1 -3 7 5 8 4 11
-3 6 -11 -7 -6 -31 11 -53 6 -9 6 -13 -2 -13 -6 0 -11 5 -11 11 0 5 -4 7 -10
4 -6 -3 -8 2 -5 12 3 10 -10 -13 -29 -52 -20 -38 -36 -75 -36 -82 0 -6 -4 -13
-9 -15 -5 -1 -37 -52 -71 -113 -35 -60 -78 -132 -97 -160 -18 -27 -33 -55 -33
-62 0 -6 -4 -13 -8 -15 -17 -6 -123 -168 -117 -178 4 -6 -1 -7 -11 -3 -13 5
-15 2 -9 -18 3 -13 3 -19 -2 -12 -5 7 -42 -30 -107 -109 -104 -126 -297 -341
-331 -370 -64 -53 -86 -78 -79 -89 4 -8 3 -10 -5 -5 -6 4 -43 -21 -89 -63 -42
-38 -96 -85 -119 -103 -23 -18 -72 -58 -110 -88 -37 -31 -79 -63 -93 -73 -78
-54 -194 -133 -208 -142 -10 -5 -19 -13 -22 -16 -9 -10 -240 -144 -340 -197
-286 -151 -735 -317 -1047 -386 -127 -28 -486 -86 -535 -86 -26 0 -49 -4 -52
-9 -10 -15 -737 -5 -876 12 -426 55 -716 127 -1110 279 -230 88 -519 235 -742
376 -113 72 -347 242 -468 341 -46 38 -88 67 -92 64 -5 -2 -7 0 -6 5 2 5 -65
77 -148 158 -251 248 -361 380 -586 700 -129 183 -340 576 -408 759 -105 282
-126 347 -179 545 -56 208 -100 473 -122 737 -14 166 -7 635 11 788 42 366 93
601 191 885 33 96 70 204 82 240 12 36 25 67 30 68 4 2 7 8 7 12 0 17 168 356
225 454 77 134 231 367 313 474 206 271 503 573 761 775 20 15 43 33 51 40 48
38 208 151 288 202 200 129 274 171 497 283 78 39 96 47 260 111 44 18 94 38
110 45 205 93 797 230 1105 255 141 12 663 12 834 1z m3592 -6207 c-10 -10
-19 5 -10 18 6 11 8 11 12 0 2 -7 1 -15 -2 -18z m-73 -33 c-3 -11 -9 -20 -13
-20 -5 0 -6 9 -3 20 3 11 9 20 13 20 5 0 6 -9 3 -20z m-369 -646 c3 -8 2 -12
-4 -9 -6 3 -10 10 -10 16 0 14 7 11 14 -7z m-3256 -1751 c-10 -2 -28 -2 -40 0
-13 2 -5 4 17 4 22 1 32 -1 23 -4z"/>
<path d="M4310 9024 c-85 -11 -261 -47 -320 -66 -36 -11 -109 -43 -163 -71
-154 -80 -252 -181 -352 -363 -52 -94 -71 -113 -215 -209 -160 -108 -229 -169
-292 -263 -66 -98 -92 -165 -123 -314 -39 -190 -72 -285 -128 -368 -59 -86
-111 -140 -180 -188 l-70 -47 34 -3 c46 -5 184 16 231 35 21 9 41 13 44 11 3
-3 -13 -32 -34 -64 -136 -205 -198 -417 -181 -624 12 -147 23 -157 30 -25 5
100 12 134 37 204 17 46 43 102 57 125 31 51 83 111 90 105 3 -3 -13 -50 -34
-105 -57 -145 -71 -233 -70 -448 1 -163 -1 -187 -21 -239 -23 -60 -90 -138
-150 -173 -16 -10 -30 -23 -30 -28 0 -15 174 2 232 24 60 22 143 87 179 140
22 32 24 33 27 13 4 -28 -50 -162 -87 -216 -16 -23 -50 -66 -76 -95 -26 -28
-44 -52 -41 -52 15 0 119 74 170 121 60 55 129 145 165 217 12 23 25 41 30 38
4 -3 4 -37 0 -76 -15 -137 -114 -285 -216 -322 -44 -16 -42 -28 5 -21 179 26
347 130 460 283 54 75 87 144 116 242 21 72 25 79 31 56 9 -34 -11 -190 -30
-235 -8 -18 -10 -33 -6 -33 10 0 91 172 91 192 0 8 7 23 15 34 14 17 15 14 10
-41 -14 -132 -48 -229 -109 -308 -34 -44 -35 -48 -14 -42 137 43 220 139 302
351 19 49 54 132 76 184 118 269 151 550 88 749 l-23 73 4 -156 c3 -158 -4
-251 -18 -242 -4 3 -11 40 -14 83 -8 100 -43 197 -140 389 -48 93 -83 177 -93
220 -28 122 -29 123 -32 49 -4 -98 12 -181 62 -309 94 -239 108 -297 114 -456
4 -126 2 -157 -17 -230 -11 -46 -24 -87 -29 -92 -4 -4 -6 64 -4 150 3 138 1
166 -19 232 -12 41 -33 98 -47 125 -27 54 -162 248 -168 242 -2 -2 12 -38 31
-80 46 -99 59 -163 52 -263 -3 -62 -12 -99 -38 -159 -42 -97 -64 -112 -42 -28
10 40 14 85 10 143 -4 78 -10 96 -65 215 -85 184 -94 217 -101 385 l-6 145
-14 -105 c-17 -138 -36 -218 -72 -311 -38 -97 -62 -131 -209 -284 -99 -104
-126 -139 -161 -210 -22 -47 -42 -85 -44 -85 -2 0 1 19 6 43 5 23 59 140 120
259 147 292 200 460 198 631 0 44 -2 49 -12 33 -56 -88 -159 -177 -269 -232
-93 -47 -115 -44 -56 6 106 91 188 232 258 445 50 153 93 241 149 313 23 29
38 52 34 52 -25 0 -143 -136 -183 -210 -24 -45 -46 -77 -48 -71 -8 23 39 149
77 209 64 98 116 147 250 236 125 83 214 163 244 221 9 17 34 69 56 116 32 67
53 98 100 141 112 104 346 197 576 230 119 17 442 17 520 -1 113 -24 250 -70
340 -114 108 -53 321 -191 341 -222 17 -26 44 -159 44 -216 0 -46 -11 -49 -58
-12 l-35 26 19 -33 c18 -31 93 -94 143 -120 13 -7 128 -56 256 -110 207 -87
335 -152 335 -171 0 -4 -26 -10 -57 -14 -133 -16 -243 -88 -243 -156 0 -64 63
-141 190 -236 88 -66 113 -105 106 -165 -15 -138 -155 -286 -363 -385 -120
-57 -195 -73 -383 -80 -179 -6 -242 1 -432 53 -106 29 -139 35 -168 28 -69
-17 -47 -84 42 -128 61 -29 263 -66 373 -67 39 0 79 -4 90 -9 19 -7 18 -9 -8
-19 -16 -6 -33 -11 -39 -11 -5 0 -39 -14 -75 -30 -92 -43 -193 -123 -193 -154
0 -7 13 -42 29 -77 16 -35 50 -125 76 -199 142 -408 230 -650 236 -650 14 0
31 216 26 337 -6 148 -29 269 -85 438 -22 66 -38 122 -35 125 13 14 119 -178
152 -275 39 -119 63 -266 70 -430 l6 -160 42 59 c69 96 87 153 86 281 0 131
-24 272 -59 350 -36 83 -25 87 20 8 84 -147 149 -210 268 -257 100 -39 107
-35 50 32 -27 31 -91 116 -142 187 -140 196 -251 320 -347 387 -24 16 -43 32
-43 36 0 4 52 5 116 3 131 -4 336 13 417 34 95 25 169 66 228 127 31 32 61 58
66 58 5 0 25 17 46 38 69 70 105 205 122 454 5 69 13 109 27 135 50 94 58 115
58 153 0 66 -25 95 -150 174 -134 85 -262 151 -450 231 -174 74 -240 108 -264
134 -16 17 -21 43 -26 124 -7 109 -26 162 -72 203 -39 36 -218 145 -318 195
-120 59 -250 103 -365 125 -87 15 -444 28 -525 18z m2046 -1115 c35 -17 54
-35 67 -61 24 -50 10 -73 -14 -25 -29 55 -106 88 -222 95 -115 7 -82 22 39 18
61 -2 92 -8 130 -27z m-19 -461 c-4 -51 -16 -128 -27 -170 -20 -82 -57 -164
-68 -154 -13 13 -42 102 -42 126 2 77 99 286 134 289 5 1 6 -38 3 -91z m-183
-304 c45 -117 -119 -221 -364 -231 -125 -6 -134 2 -40 32 118 38 306 141 355
195 22 24 41 26 49 4z"/>
<path d="M4805 8386 c-27 -12 -80 -51 -117 -84 l-68 -61 33 1 c22 1 47 -10 80
-33 43 -30 56 -34 110 -34 55 0 68 4 110 34 42 31 50 33 73 22 15 -6 28 -10
30 -9 2 2 -14 35 -35 73 -61 113 -118 137 -216 91z m95 -67 c0 -14 -7 -19 -25
-19 -18 0 -25 5 -25 19 0 11 6 21 13 24 20 7 37 -4 37 -24z"/>
<path d="M3932 8327 c-17 -17 -46 -63 -64 -102 -32 -67 -33 -74 -32 -190 0
-175 29 -255 204 -570 112 -203 144 -291 156 -435 6 -84 -7 -81 -27 5 -16 71
-81 206 -133 278 -42 60 -126 148 -126 134 0 -4 15 -30 34 -59 48 -75 103
-186 127 -255 48 -140 62 -327 33 -456 -28 -123 -67 -191 -187 -322 -26 -27
-45 -51 -43 -53 5 -4 74 37 131 79 65 48 106 92 141 154 20 35 30 45 32 32 7
-33 -39 -161 -99 -277 l-58 -115 49 55 c271 300 356 681 234 1045 -32 96 -73
181 -164 335 -104 179 -116 201 -155 306 -45 121 -57 253 -32 369 8 39 14 71
13 72 -1 2 -16 -12 -34 -30z"/>
<path d="M7854 7847 c-147 -152 -481 -516 -736 -802 -119 -134 -141 -153 -212
-191 -106 -57 -164 -67 -262 -49 -204 40 -382 -13 -476 -141 -56 -77 -71 -124
-66 -205 7 -86 37 -134 111 -175 47 -26 61 -29 142 -28 100 1 166 21 229 69
55 42 129 142 162 218 35 83 59 107 155 155 56 28 78 45 91 70 26 53 48 72 83
72 46 0 63 -18 80 -84 28 -108 9 -133 -143 -188 -108 -39 -169 -80 -216 -145
-95 -129 -99 -311 -9 -398 102 -99 298 -80 416 41 65 67 97 138 104 231 6 71
3 83 -42 218 -67 195 -65 201 65 271 93 49 508 307 622 385 61 43 82 49 74 22
-3 -10 -26 -126 -52 -258 -30 -155 -69 -316 -111 -455 -102 -339 -112 -375
-129 -454 -13 -66 -13 -78 0 -109 24 -58 125 -99 189 -78 54 18 67 54 78 209
25 384 51 553 95 620 l16 25 162 -7 c109 -5 158 -4 151 3 -5 5 -61 24 -124 41
-138 37 -153 45 -149 73 3 24 5 24 108 14 l65 -7 -65 21 c-74 23 -96 40 -86
64 7 19 22 18 149 -10 111 -24 107 -12 -4 15 -99 24 -129 37 -129 58 0 7 -15
19 -34 27 -34 14 -34 16 -40 87 -11 146 -15 381 -7 397 12 23 23 90 12 71 -5
-8 -21 -64 -36 -125 -15 -60 -32 -115 -39 -121 -6 -7 -96 -40 -201 -74 -104
-35 -225 -76 -268 -93 -42 -16 -80 -28 -82 -25 -3 3 12 34 33 69 101 166 316
547 353 626 62 129 68 143 65 143 -1 0 -43 -42 -92 -93z m-210 -329 c-4 -7
-57 -84 -118 -171 -61 -87 -163 -234 -227 -325 -63 -92 -122 -168 -130 -169
-8 -2 -27 8 -43 21 l-29 24 44 52 c217 256 499 580 506 580 2 0 1 -6 -3 -12z
m-1046 -803 c44 -27 66 -76 59 -136 -16 -134 -138 -237 -292 -247 -105 -7
-171 36 -182 116 -15 114 60 219 195 273 60 25 173 21 220 -6z m543 -240 c127
-66 111 -275 -29 -382 -96 -73 -231 -71 -287 5 -16 22 -20 43 -20 107 0 111
35 177 126 241 78 54 144 63 210 29z"/>
<path d="M8230 7919 c-22 -40 -48 -132 -42 -147 4 -11 2 -13 -8 -7 -9 5 -11 4
-6 -4 4 -6 2 -19 -6 -28 -12 -15 -11 -15 10 -4 15 8 22 21 22 41 0 20 5 30 15
30 18 0 18 5 5 30 -9 16 -8 18 5 14 11 -5 14 -2 8 11 -5 15 -2 17 20 12 16 -5
27 -3 29 5 4 10 13 10 41 1 22 -6 39 -7 43 -2 3 5 -4 9 -15 9 -11 0 -23 5 -27
11 -5 9 1 10 22 5 42 -11 21 5 -34 26 -60 23 -69 23 -82 -3z"/>
<path d="M8388 7883 c7 -3 16 -2 19 1 4 3 -2 6 -13 5 -11 0 -14 -3 -6 -6z"/>
<path d="M8323 7851 c6 -25 35 -37 49 -22 11 11 9 12 -9 7 -15 -5 -25 -1 -33
11 -6 10 -10 12 -7 4z"/>
<path d="M8392 7814 c-7 -8 -8 -14 -3 -14 10 0 25 19 20 25 -2 1 -10 -3 -17
-11z"/>
<path d="M8340 7774 c0 -8 -4 -13 -9 -10 -4 3 -6 -7 -2 -22 5 -27 5 -27 9 -3
3 17 6 20 12 11 5 -8 8 -4 7 13 -2 28 -17 38 -17 11z"/>
<path d="M8371 7774 c0 -11 3 -14 6 -6 3 7 2 16 -1 19 -3 4 -6 -2 -5 -13z"/>
<path d="M8235 7758 c10 -30 13 -34 25 -22 6 6 2 16 -11 28 -20 17 -21 17 -14
-6z"/>
<path d="M8372 7729 c-16 -26 -15 -34 3 -19 14 11 36 10 82 -6 32 -12 1 14
-38 30 -33 14 -36 13 -47 -5z"/>
<path d="M8508 7703 c12 -2 22 -9 22 -14 0 -11 27 -12 34 -1 3 5 0 9 -7 10 -7
1 -25 3 -42 5 -16 3 -20 2 -7 0z"/>
<path d="M8600 7675 c14 -8 36 -14 50 -14 22 0 21 2 -10 14 -47 18 -71 18 -40
0z"/>
<path d="M8356 7642 c-3 -5 7 -9 22 -10 15 0 49 -6 76 -12 65 -14 68 -7 5 13
-56 19 -95 22 -103 9z"/>
<path d="M8323 7570 c2 -9 22 -18 48 -22 24 -4 59 -10 78 -14 25 -5 32 -4 26
5 -4 7 -13 10 -21 7 -7 -3 -16 -1 -19 4 -4 6 -21 10 -39 10 -17 0 -37 5 -44
12 -9 9 -12 9 -12 -2 0 -13 -2 -13 -11 0 -9 13 -10 13 -6 0z"/>
<path d="M8310 7526 c0 -8 4 -17 9 -20 5 -4 7 3 4 14 -6 23 -13 26 -13 6z"/>
<path d="M8490 7527 c10 -11 90 -25 90 -16 0 5 -6 9 -14 9 -7 0 -29 3 -47 6
-19 4 -32 4 -29 1z"/>
<path d="M5990 7479 c0 -5 5 -7 10 -4 6 3 10 8 10 11 0 2 -4 4 -10 4 -5 0 -10
-5 -10 -11z"/>
<path d="M8325 7480 c-3 -6 1 -7 9 -4 18 7 21 14 7 14 -6 0 -13 -4 -16 -10z"/>
<path d="M8380 7471 c53 -17 85 -22 75 -13 -5 6 -30 13 -55 16 -30 4 -37 3
-20 -3z"/>
<path d="M8292 7440 c0 -14 2 -19 5 -12 2 6 2 18 0 25 -3 6 -5 1 -5 -13z"/>
<path d="M8474 7449 c-3 -5 6 -9 20 -9 31 0 34 6 6 13 -11 3 -23 1 -26 -4z"/>
<path d="M5850 7435 c0 -8 5 -15 10 -15 6 0 10 7 10 15 0 8 -4 15 -10 15 -5 0
-10 -7 -10 -15z"/>
<path d="M8538 7428 c6 -6 18 -8 28 -6 14 3 12 5 -9 10 -19 3 -25 2 -19 -4z"/>
<path d="M8310 7408 c8 -8 100 -37 100 -32 0 2 -11 9 -25 14 -34 13 -81 24
-75 18z"/>
<path d="M5710 7380 c0 -5 5 -10 10 -10 6 0 10 5 10 10 0 6 -4 10 -10 10 -5 0
-10 -4 -10 -10z"/>
<path d="M8500 7350 c60 -22 80 -25 80 -10 0 11 -65 30 -105 30 -25 -1 -21 -4
25 -20z"/>
<path d="M5970 7340 c0 -5 5 -10 10 -10 6 0 10 5 10 10 0 6 -4 10 -10 10 -5 0
-10 -4 -10 -10z"/>
<path d="M8280 7340 c0 -5 5 -10 11 -10 5 0 7 5 4 10 -3 6 -8 10 -11 10 -2 0
-4 -4 -4 -10z"/>
<path d="M8310 7320 c0 -6 65 -26 115 -35 24 -4 26 -3 10 4 -11 5 -30 10 -42
10 -13 1 -23 5 -23 10 0 5 -13 11 -30 13 -16 3 -30 2 -30 -2z"/>
<path d="M5830 7295 c0 -9 5 -15 11 -13 6 2 11 8 11 13 0 5 -5 11 -11 13 -6 2
-11 -4 -11 -13z"/>
<path d="M8460 7285 c0 -7 34 -20 78 -30 20 -4 32 -3 32 4 0 5 -17 13 -37 16
-21 4 -46 9 -55 12 -10 2 -18 2 -18 -2z"/>
<path d="M8270 7251 c13 -10 13 -11 0 -12 -18 -1 97 -27 124 -28 31 -1 12 9
-40 23 -27 7 -60 16 -74 20 -19 6 -21 5 -10 -3z"/>
<path d="M8476 7190 c11 -10 82 -25 72 -15 -3 4 -23 11 -43 15 -21 5 -34 5
-29 0z"/>
<path d="M8275 7155 c31 -13 152 -48 215 -60 24 -5 32 -4 25 3 -10 10 -236 73
-259 71 -6 0 3 -6 19 -14z"/>
<path d="M8265 7076 c17 -8 50 -16 75 -20 l45 -6 -45 14 c-25 7 -58 15 -75 19
l-30 6 30 -13z"/>
<path d="M8325 6969 c68 -21 75 -22 75 -11 0 9 -90 33 -118 31 -9 0 10 -9 43
-20z"/>
<path d="M8458 6938 c5 -5 16 -8 23 -6 8 3 3 7 -10 11 -17 4 -21 3 -13 -5z"/>
<path d="M3720 5761 c-121 -32 -301 -124 -425 -216 -98 -73 -254 -223 -331
-319 -70 -88 -143 -220 -168 -305 -20 -70 -20 -174 0 -234 20 -59 83 -123 152
-155 44 -20 65 -24 122 -20 49 2 74 9 89 22 26 24 16 38 -38 54 -180 55 -134
352 101 649 210 265 520 475 662 449 81 -15 113 -77 95 -186 -15 -101 -107
-362 -193 -553 -13 -29 -34 -77 -47 -107 -13 -30 -50 -109 -82 -175 -33 -66
-76 -158 -97 -205 -21 -47 -61 -137 -90 -200 -104 -232 -170 -424 -170 -499 0
-72 69 -140 163 -161 86 -19 117 2 117 82 1 235 292 771 639 1178 171 200 373
383 438 396 32 6 63 -15 63 -43 0 -19 -46 -122 -150 -338 -154 -319 -258 -583
-286 -723 -34 -175 -1 -291 100 -356 34 -22 51 -26 118 -26 47 0 78 4 78 10 0
6 -10 25 -22 41 -20 26 -23 43 -23 112 1 166 62 356 242 752 243 533 263 584
263 667 0 103 -76 163 -195 156 -177 -11 -430 -226 -822 -696 -19 -24 -37 -41
-39 -39 -2 2 7 30 21 61 53 119 147 394 167 486 26 121 28 229 5 296 -21 62
-85 127 -146 149 -60 21 -226 19 -311 -4z"/>
<path d="M7947 5628 c-38 -14 -44 -48 -18 -114 26 -69 26 -94 0 -172 -28 -82
-82 -163 -163 -242 -73 -72 -83 -103 -33 -108 31 -4 88 34 190 128 149 136
242 321 222 441 -5 31 -15 45 -39 60 -34 21 -111 25 -159 7z"/>
<path d="M7299 5267 c-116 -78 -127 -263 -17 -291 50 -13 101 0 150 37 76 58
109 151 75 216 -30 59 -145 80 -208 38z"/>
<path d="M8240 4913 c-146 -18 -322 -119 -369 -212 -27 -52 -35 -114 -21 -158
13 -40 67 -117 150 -218 28 -32 50 -62 50 -67 0 -4 -46 -30 -102 -58 -114 -56
-208 -131 -238 -191 -43 -83 -14 -163 73 -207 66 -33 220 -34 317 -3 112 35
216 116 256 199 28 57 30 146 5 212 -11 30 -17 57 -13 61 4 4 88 34 187 68
227 78 249 89 253 122 2 16 -3 29 -11 32 -8 3 -123 -31 -256 -75 l-242 -81
-57 63 c-66 72 -119 152 -131 195 -18 69 23 136 111 181 58 29 99 31 123 4 15
-16 17 -30 12 -80 -6 -58 -6 -60 19 -66 46 -12 131 43 159 103 16 33 16 38 0
79 -14 36 -25 47 -68 68 -53 25 -141 37 -207 29z m-119 -760 c16 -41 5 -97
-30 -151 -31 -48 -106 -106 -151 -117 -58 -14 -110 35 -96 90 10 41 73 102
160 155 44 28 86 50 93 50 8 0 18 -12 24 -27z"/>
<path d="M5218 4797 c-100 -31 -177 -78 -248 -154 -78 -83 -116 -139 -158
-237 -30 -69 -36 -95 -40 -178 -6 -132 7 -178 72 -244 60 -59 117 -80 216 -77
73 1 178 39 252 91 73 51 166 157 222 253 26 45 31 48 126 81 55 19 100 31
100 26 0 -5 -9 -30 -19 -56 -71 -176 -87 -239 -71 -288 19 -57 113 -113 160
-96 10 4 56 60 102 124 46 64 112 154 148 200 76 98 282 306 288 289 2 -6 -19
-59 -46 -118 -67 -146 -85 -214 -80 -307 4 -89 22 -119 89 -154 36 -19 56 -23
114 -20 91 4 173 43 279 132 43 36 82 66 87 66 5 0 9 -12 9 -27 0 -27 28 -82
55 -109 33 -34 97 -57 158 -57 151 0 363 152 538 386 65 86 76 127 35 127 -18
0 -44 -23 -104 -94 -129 -150 -287 -278 -360 -292 -66 -13 -92 57 -58 152 17
48 99 219 161 334 25 47 45 95 45 107 0 57 -103 123 -191 123 -35 0 -37 -2
-43 -38 -3 -21 -29 -85 -57 -142 -28 -58 -62 -132 -76 -165 -43 -102 -190
-265 -315 -350 -55 -37 -77 -42 -109 -25 -46 25 -6 159 126 413 67 129 62 203
-16 247 -46 25 -110 28 -160 7 -75 -31 -254 -200 -378 -355 -41 -51 -76 -90
-78 -88 -3 2 34 86 81 186 47 99 86 194 86 209 0 36 -37 76 -93 100 -104 45
-141 37 -149 -31 -8 -66 -76 -229 -107 -259 -28 -26 -166 -89 -196 -89 -14 0
-16 6 -8 43 12 62 9 176 -6 220 -45 132 -206 188 -383 134z m230 -100 c31 -33
45 -121 33 -205 -13 -97 -25 -122 -57 -122 -34 0 -94 34 -118 67 -58 78 -29
211 58 264 41 25 58 24 84 -4z m-273 -280 c40 -56 112 -103 180 -118 30 -7 55
-18 55 -24 0 -23 -79 -131 -130 -179 -52 -49 -119 -85 -157 -86 -13 0 -37 13
-55 29 -33 29 -33 30 -32 123 1 75 6 106 28 162 27 72 63 136 74 135 4 0 21
-19 37 -42z"/>
<path d="M6548 3441 c-53 -11 -112 -53 -131 -94 -35 -73 -12 -160 52 -202 20
-13 76 -35 124 -48 98 -28 137 -55 137 -98 0 -87 -149 -112 -253 -43 l-40 26
-31 -32 -31 -31 30 -25 c81 -65 241 -86 326 -41 79 42 115 129 87 212 -18 53
-71 88 -183 120 -129 36 -163 81 -111 142 22 25 30 28 88 28 45 -1 75 -7 105
-23 l42 -22 20 29 c12 16 21 34 21 41 0 18 -101 59 -160 64 -30 3 -72 1 -92
-3z"/>
<path d="M4335 3428 c-3 -7 -4 -144 -3 -303 l3 -290 45 0 45 0 5 100 5 100
105 5 c115 6 150 19 193 69 36 43 51 95 44 153 -8 67 -34 107 -92 143 -47 29
-52 30 -197 33 -116 3 -149 1 -153 -10z m295 -96 c67 -33 67 -145 0 -190 -30
-20 -44 -22 -115 -20 l-80 3 -3 113 -3 112 83 0 c59 0 93 -5 118 -18z"/>
<path d="M5049 3408 c-3 -88 3 -564 8 -568 2 -3 95 -5 206 -5 l202 0 3 42 3
42 -163 3 -163 3 -3 79 c-2 57 1 82 10 87 7 5 68 9 136 9 l122 0 0 40 0 39
-132 3 -133 3 0 80 0 80 155 5 155 5 3 43 3 42 -205 0 -206 0 -1 -32z"/>
<path d="M5690 3395 l0 -44 93 -3 92 -3 5 -255 5 -255 43 0 44 0 -2 192 c0
105 2 221 6 257 l7 66 88 0 89 0 0 45 0 45 -235 0 -235 0 0 -45z"/>
</g>
</svg>
